<mxfile host="app.diagrams.net" modified="2022-12-01T07:27:20.923Z" agent="5.0 (Windows NT 10.0; Win64; x64) AppleWebKit/537.36 (KHTML, like Gecko) Chrome/107.0.0.0 Safari/537.36 Edg/107.0.1418.62" version="20.6.0" etag="Jb__N3ZhnXWbUe1yd4tz" type="github">
  <diagram id="8z16Fb5yELjLgIwZ5AcI" name="第 1 页">
    <mxGraphModel dx="1221" dy="681" grid="1" gridSize="10" guides="1" tooltips="1" connect="1" arrows="1" fold="1" page="1" pageScale="1" pageWidth="827" pageHeight="1169" math="0" shadow="0">
      <root>
        <mxCell id="0" />
        <mxCell id="1" parent="0" />
        <mxCell id="3z7upujMglhFg8xOP7fg-65" value="" style="rounded=0;whiteSpace=wrap;html=1;fontSize=18;" vertex="1" parent="1">
          <mxGeometry x="150" y="120" width="840" height="640" as="geometry" />
        </mxCell>
        <mxCell id="3z7upujMglhFg8xOP7fg-3" value="Functions" style="rounded=1;whiteSpace=wrap;html=1;fontSize=18;fillColor=#d5e8d4;strokeColor=#82b366;" vertex="1" parent="1">
          <mxGeometry x="170" y="180" width="120" height="50" as="geometry" />
        </mxCell>
        <mxCell id="3z7upujMglhFg8xOP7fg-4" value="Application" style="rounded=1;whiteSpace=wrap;html=1;fontSize=18;fillColor=#d5e8d4;strokeColor=#82b366;" vertex="1" parent="1">
          <mxGeometry x="170" y="253" width="120" height="50" as="geometry" />
        </mxCell>
        <mxCell id="3z7upujMglhFg8xOP7fg-5" value="Runtime" style="rounded=1;whiteSpace=wrap;html=1;fontSize=18;fillColor=#d5e8d4;strokeColor=#82b366;" vertex="1" parent="1">
          <mxGeometry x="170" y="326" width="120" height="50" as="geometry" />
        </mxCell>
        <mxCell id="3z7upujMglhFg8xOP7fg-6" value="OS" style="rounded=1;whiteSpace=wrap;html=1;fontSize=18;fillColor=#d5e8d4;strokeColor=#82b366;" vertex="1" parent="1">
          <mxGeometry x="170" y="399" width="120" height="50" as="geometry" />
        </mxCell>
        <mxCell id="3z7upujMglhFg8xOP7fg-7" value="Virtualization" style="rounded=1;whiteSpace=wrap;html=1;fontSize=18;fillColor=#d5e8d4;strokeColor=#82b366;" vertex="1" parent="1">
          <mxGeometry x="170" y="471" width="120" height="50" as="geometry" />
        </mxCell>
        <mxCell id="3z7upujMglhFg8xOP7fg-8" value="Servers&lt;span style=&quot;color: rgba(0, 0, 0, 0); font-family: monospace; font-size: 0px; text-align: start;&quot;&gt;%3CmxGraphModel%3E%3Croot%3E%3CmxCell%20id%3D%220%22%2F%3E%3CmxCell%20id%3D%221%22%20parent%3D%220%22%2F%3E%3CmxCell%20id%3D%222%22%20value%3D%22OS%22%20style%3D%22rounded%3D1%3BwhiteSpace%3Dwrap%3Bhtml%3D1%3BfontSize%3D18%3B%22%20vertex%3D%221%22%20parent%3D%221%22%3E%3CmxGeometry%20x%3D%22180%22%20y%3D%22400%22%20width%3D%22120%22%20height%3D%2250%22%20as%3D%22geometry%22%2F%3E%3C%2FmxCell%3E%3C%2Froot%3E%3C%2FmxGraphModel%3E&lt;/span&gt;" style="rounded=1;whiteSpace=wrap;html=1;fontSize=18;fillColor=#d5e8d4;strokeColor=#82b366;" vertex="1" parent="1">
          <mxGeometry x="170" y="544" width="120" height="50" as="geometry" />
        </mxCell>
        <mxCell id="3z7upujMglhFg8xOP7fg-9" value="Network" style="rounded=1;whiteSpace=wrap;html=1;fontSize=18;fillColor=#d5e8d4;strokeColor=#82b366;" vertex="1" parent="1">
          <mxGeometry x="170" y="617" width="120" height="50" as="geometry" />
        </mxCell>
        <mxCell id="3z7upujMglhFg8xOP7fg-10" value="Data Center" style="rounded=1;whiteSpace=wrap;html=1;fontSize=18;fillColor=#d5e8d4;strokeColor=#82b366;" vertex="1" parent="1">
          <mxGeometry x="170" y="690" width="120" height="50" as="geometry" />
        </mxCell>
        <mxCell id="3z7upujMglhFg8xOP7fg-27" value="Functions" style="rounded=1;whiteSpace=wrap;html=1;fontSize=18;fillColor=#d5e8d4;strokeColor=#82b366;" vertex="1" parent="1">
          <mxGeometry x="340" y="180" width="120" height="50" as="geometry" />
        </mxCell>
        <mxCell id="3z7upujMglhFg8xOP7fg-28" value="Application" style="rounded=1;whiteSpace=wrap;html=1;fontSize=18;fillColor=#d5e8d4;strokeColor=#82b366;" vertex="1" parent="1">
          <mxGeometry x="340" y="253" width="120" height="50" as="geometry" />
        </mxCell>
        <mxCell id="3z7upujMglhFg8xOP7fg-29" value="Runtime" style="rounded=1;whiteSpace=wrap;html=1;fontSize=18;fillColor=#d5e8d4;strokeColor=#82b366;" vertex="1" parent="1">
          <mxGeometry x="340" y="326" width="120" height="50" as="geometry" />
        </mxCell>
        <mxCell id="3z7upujMglhFg8xOP7fg-30" value="OS" style="rounded=1;whiteSpace=wrap;html=1;fontSize=18;fillColor=#d5e8d4;strokeColor=#82b366;" vertex="1" parent="1">
          <mxGeometry x="340" y="399" width="120" height="50" as="geometry" />
        </mxCell>
        <mxCell id="3z7upujMglhFg8xOP7fg-31" value="Virtualization" style="rounded=1;whiteSpace=wrap;html=1;fontSize=18;fillColor=#94E894;strokeColor=#82b366;" vertex="1" parent="1">
          <mxGeometry x="340" y="471" width="120" height="50" as="geometry" />
        </mxCell>
        <mxCell id="3z7upujMglhFg8xOP7fg-32" value="Servers&lt;span style=&quot;color: rgba(0, 0, 0, 0); font-family: monospace; font-size: 0px; text-align: start;&quot;&gt;%3CmxGraphModel%3E%3Croot%3E%3CmxCell%20id%3D%220%22%2F%3E%3CmxCell%20id%3D%221%22%20parent%3D%220%22%2F%3E%3CmxCell%20id%3D%222%22%20value%3D%22OS%22%20style%3D%22rounded%3D1%3BwhiteSpace%3Dwrap%3Bhtml%3D1%3BfontSize%3D18%3B%22%20vertex%3D%221%22%20parent%3D%221%22%3E%3CmxGeometry%20x%3D%22180%22%20y%3D%22400%22%20width%3D%22120%22%20height%3D%2250%22%20as%3D%22geometry%22%2F%3E%3C%2FmxCell%3E%3C%2Froot%3E%3C%2FmxGraphModel%3E&lt;/span&gt;" style="rounded=1;whiteSpace=wrap;html=1;fontSize=18;fillColor=#94E894;strokeColor=#82b366;" vertex="1" parent="1">
          <mxGeometry x="340" y="544" width="120" height="50" as="geometry" />
        </mxCell>
        <mxCell id="3z7upujMglhFg8xOP7fg-33" value="Network" style="rounded=1;whiteSpace=wrap;html=1;fontSize=18;fillColor=#94E894;strokeColor=#82b366;" vertex="1" parent="1">
          <mxGeometry x="340" y="617" width="120" height="50" as="geometry" />
        </mxCell>
        <mxCell id="3z7upujMglhFg8xOP7fg-34" value="Data Center" style="rounded=1;whiteSpace=wrap;html=1;fontSize=18;fillColor=#94E894;strokeColor=#82b366;" vertex="1" parent="1">
          <mxGeometry x="340" y="690" width="120" height="50" as="geometry" />
        </mxCell>
        <mxCell id="3z7upujMglhFg8xOP7fg-35" value="Functions" style="rounded=1;whiteSpace=wrap;html=1;fontSize=18;fillColor=#d5e8d4;strokeColor=#82b366;" vertex="1" parent="1">
          <mxGeometry x="510" y="180" width="120" height="50" as="geometry" />
        </mxCell>
        <mxCell id="3z7upujMglhFg8xOP7fg-36" value="Application" style="rounded=1;whiteSpace=wrap;html=1;fontSize=18;fillColor=#d5e8d4;strokeColor=#82b366;" vertex="1" parent="1">
          <mxGeometry x="510" y="253" width="120" height="50" as="geometry" />
        </mxCell>
        <mxCell id="3z7upujMglhFg8xOP7fg-37" value="Runtime" style="rounded=1;whiteSpace=wrap;html=1;fontSize=18;fillColor=#94E894;strokeColor=#82b366;" vertex="1" parent="1">
          <mxGeometry x="510" y="326" width="120" height="50" as="geometry" />
        </mxCell>
        <mxCell id="3z7upujMglhFg8xOP7fg-38" value="OS" style="rounded=1;whiteSpace=wrap;html=1;fontSize=18;fillColor=#94E894;strokeColor=#82b366;" vertex="1" parent="1">
          <mxGeometry x="510" y="399" width="120" height="50" as="geometry" />
        </mxCell>
        <mxCell id="3z7upujMglhFg8xOP7fg-39" value="Virtualization" style="rounded=1;whiteSpace=wrap;html=1;fontSize=18;fillColor=#94E894;strokeColor=#82b366;" vertex="1" parent="1">
          <mxGeometry x="510" y="471" width="120" height="50" as="geometry" />
        </mxCell>
        <mxCell id="3z7upujMglhFg8xOP7fg-40" value="Servers&lt;span style=&quot;color: rgba(0, 0, 0, 0); font-family: monospace; font-size: 0px; text-align: start;&quot;&gt;%3CmxGraphModel%3E%3Croot%3E%3CmxCell%20id%3D%220%22%2F%3E%3CmxCell%20id%3D%221%22%20parent%3D%220%22%2F%3E%3CmxCell%20id%3D%222%22%20value%3D%22OS%22%20style%3D%22rounded%3D1%3BwhiteSpace%3Dwrap%3Bhtml%3D1%3BfontSize%3D18%3B%22%20vertex%3D%221%22%20parent%3D%221%22%3E%3CmxGeometry%20x%3D%22180%22%20y%3D%22400%22%20width%3D%22120%22%20height%3D%2250%22%20as%3D%22geometry%22%2F%3E%3C%2FmxCell%3E%3C%2Froot%3E%3C%2FmxGraphModel%3E&lt;/span&gt;" style="rounded=1;whiteSpace=wrap;html=1;fontSize=18;fillColor=#94E894;strokeColor=#82b366;" vertex="1" parent="1">
          <mxGeometry x="510" y="544" width="120" height="50" as="geometry" />
        </mxCell>
        <mxCell id="3z7upujMglhFg8xOP7fg-41" value="Network" style="rounded=1;whiteSpace=wrap;html=1;fontSize=18;fillColor=#94E894;strokeColor=#82b366;" vertex="1" parent="1">
          <mxGeometry x="510" y="617" width="120" height="50" as="geometry" />
        </mxCell>
        <mxCell id="3z7upujMglhFg8xOP7fg-42" value="Data Center" style="rounded=1;whiteSpace=wrap;html=1;fontSize=18;fillColor=#94E894;strokeColor=#82b366;" vertex="1" parent="1">
          <mxGeometry x="510" y="690" width="120" height="50" as="geometry" />
        </mxCell>
        <mxCell id="3z7upujMglhFg8xOP7fg-43" value="Functions" style="rounded=1;whiteSpace=wrap;html=1;fontSize=18;fillColor=#d5e8d4;strokeColor=#82b366;" vertex="1" parent="1">
          <mxGeometry x="680" y="180" width="120" height="50" as="geometry" />
        </mxCell>
        <mxCell id="3z7upujMglhFg8xOP7fg-44" value="Application" style="rounded=1;whiteSpace=wrap;html=1;fontSize=18;fillColor=#94E894;strokeColor=#82b366;" vertex="1" parent="1">
          <mxGeometry x="680" y="253" width="120" height="50" as="geometry" />
        </mxCell>
        <mxCell id="3z7upujMglhFg8xOP7fg-45" value="Runtime" style="rounded=1;whiteSpace=wrap;html=1;fontSize=18;fillColor=#94E894;strokeColor=#82b366;" vertex="1" parent="1">
          <mxGeometry x="680" y="326" width="120" height="50" as="geometry" />
        </mxCell>
        <mxCell id="3z7upujMglhFg8xOP7fg-46" value="OS" style="rounded=1;whiteSpace=wrap;html=1;fontSize=18;fillColor=#94E894;strokeColor=#82b366;" vertex="1" parent="1">
          <mxGeometry x="680" y="399" width="120" height="50" as="geometry" />
        </mxCell>
        <mxCell id="3z7upujMglhFg8xOP7fg-47" value="Virtualization" style="rounded=1;whiteSpace=wrap;html=1;fontSize=18;fillColor=#94E894;strokeColor=#82b366;" vertex="1" parent="1">
          <mxGeometry x="680" y="471" width="120" height="50" as="geometry" />
        </mxCell>
        <mxCell id="3z7upujMglhFg8xOP7fg-48" value="Servers&lt;span style=&quot;color: rgba(0, 0, 0, 0); font-family: monospace; font-size: 0px; text-align: start;&quot;&gt;%3CmxGraphModel%3E%3Croot%3E%3CmxCell%20id%3D%220%22%2F%3E%3CmxCell%20id%3D%221%22%20parent%3D%220%22%2F%3E%3CmxCell%20id%3D%222%22%20value%3D%22OS%22%20style%3D%22rounded%3D1%3BwhiteSpace%3Dwrap%3Bhtml%3D1%3BfontSize%3D18%3B%22%20vertex%3D%221%22%20parent%3D%221%22%3E%3CmxGeometry%20x%3D%22180%22%20y%3D%22400%22%20width%3D%22120%22%20height%3D%2250%22%20as%3D%22geometry%22%2F%3E%3C%2FmxCell%3E%3C%2Froot%3E%3C%2FmxGraphModel%3E&lt;/span&gt;" style="rounded=1;whiteSpace=wrap;html=1;fontSize=18;fillColor=#94E894;strokeColor=#82b366;" vertex="1" parent="1">
          <mxGeometry x="680" y="544" width="120" height="50" as="geometry" />
        </mxCell>
        <mxCell id="3z7upujMglhFg8xOP7fg-49" value="Network" style="rounded=1;whiteSpace=wrap;html=1;fontSize=18;fillColor=#94E894;strokeColor=#82b366;" vertex="1" parent="1">
          <mxGeometry x="680" y="617" width="120" height="50" as="geometry" />
        </mxCell>
        <mxCell id="3z7upujMglhFg8xOP7fg-50" value="Data Center" style="rounded=1;whiteSpace=wrap;html=1;fontSize=18;fillColor=#94E894;strokeColor=#82b366;" vertex="1" parent="1">
          <mxGeometry x="680" y="690" width="120" height="50" as="geometry" />
        </mxCell>
        <mxCell id="3z7upujMglhFg8xOP7fg-51" value="Functions" style="rounded=1;whiteSpace=wrap;html=1;fontSize=18;fillColor=#94E894;strokeColor=#82b366;" vertex="1" parent="1">
          <mxGeometry x="850" y="180" width="120" height="50" as="geometry" />
        </mxCell>
        <mxCell id="3z7upujMglhFg8xOP7fg-52" value="Application" style="rounded=1;whiteSpace=wrap;html=1;fontSize=18;fillColor=#94E894;strokeColor=#82b366;" vertex="1" parent="1">
          <mxGeometry x="850" y="253" width="120" height="50" as="geometry" />
        </mxCell>
        <mxCell id="3z7upujMglhFg8xOP7fg-53" value="Runtime" style="rounded=1;whiteSpace=wrap;html=1;fontSize=18;fillColor=#94E894;strokeColor=#82b366;" vertex="1" parent="1">
          <mxGeometry x="850" y="326" width="120" height="50" as="geometry" />
        </mxCell>
        <mxCell id="3z7upujMglhFg8xOP7fg-54" value="OS" style="rounded=1;whiteSpace=wrap;html=1;fontSize=18;fillColor=#94E894;strokeColor=#82b366;" vertex="1" parent="1">
          <mxGeometry x="850" y="399" width="120" height="50" as="geometry" />
        </mxCell>
        <mxCell id="3z7upujMglhFg8xOP7fg-55" value="Virtualization" style="rounded=1;whiteSpace=wrap;html=1;fontSize=18;fillColor=#94E894;strokeColor=#82b366;" vertex="1" parent="1">
          <mxGeometry x="850" y="471" width="120" height="50" as="geometry" />
        </mxCell>
        <mxCell id="3z7upujMglhFg8xOP7fg-56" value="Servers&lt;span style=&quot;color: rgba(0, 0, 0, 0); font-family: monospace; font-size: 0px; text-align: start;&quot;&gt;%3CmxGraphModel%3E%3Croot%3E%3CmxCell%20id%3D%220%22%2F%3E%3CmxCell%20id%3D%221%22%20parent%3D%220%22%2F%3E%3CmxCell%20id%3D%222%22%20value%3D%22OS%22%20style%3D%22rounded%3D1%3BwhiteSpace%3Dwrap%3Bhtml%3D1%3BfontSize%3D18%3B%22%20vertex%3D%221%22%20parent%3D%221%22%3E%3CmxGeometry%20x%3D%22180%22%20y%3D%22400%22%20width%3D%22120%22%20height%3D%2250%22%20as%3D%22geometry%22%2F%3E%3C%2FmxCell%3E%3C%2Froot%3E%3C%2FmxGraphModel%3E&lt;/span&gt;" style="rounded=1;whiteSpace=wrap;html=1;fontSize=18;fillColor=#94E894;strokeColor=#82b366;" vertex="1" parent="1">
          <mxGeometry x="850" y="544" width="120" height="50" as="geometry" />
        </mxCell>
        <mxCell id="3z7upujMglhFg8xOP7fg-57" value="Network" style="rounded=1;whiteSpace=wrap;html=1;fontSize=18;fillColor=#94E894;strokeColor=#82b366;" vertex="1" parent="1">
          <mxGeometry x="850" y="617" width="120" height="50" as="geometry" />
        </mxCell>
        <mxCell id="3z7upujMglhFg8xOP7fg-58" value="Data Center" style="rounded=1;whiteSpace=wrap;html=1;fontSize=18;fillColor=#94E894;strokeColor=#82b366;" vertex="1" parent="1">
          <mxGeometry x="850" y="690" width="120" height="50" as="geometry" />
        </mxCell>
        <mxCell id="3z7upujMglhFg8xOP7fg-59" value="传统模式" style="text;html=1;strokeColor=none;fillColor=none;align=center;verticalAlign=middle;whiteSpace=wrap;rounded=0;fontSize=18;" vertex="1" parent="1">
          <mxGeometry x="185" y="130" width="90" height="30" as="geometry" />
        </mxCell>
        <mxCell id="3z7upujMglhFg8xOP7fg-60" value="IaaS" style="text;html=1;strokeColor=none;fillColor=none;align=center;verticalAlign=middle;whiteSpace=wrap;rounded=0;fontSize=18;" vertex="1" parent="1">
          <mxGeometry x="355" y="130" width="90" height="30" as="geometry" />
        </mxCell>
        <mxCell id="3z7upujMglhFg8xOP7fg-61" value="PaaS" style="text;html=1;strokeColor=none;fillColor=none;align=center;verticalAlign=middle;whiteSpace=wrap;rounded=0;fontSize=18;" vertex="1" parent="1">
          <mxGeometry x="525" y="130" width="90" height="30" as="geometry" />
        </mxCell>
        <mxCell id="3z7upujMglhFg8xOP7fg-62" value="FaaS" style="text;html=1;strokeColor=none;fillColor=none;align=center;verticalAlign=middle;whiteSpace=wrap;rounded=0;fontSize=18;" vertex="1" parent="1">
          <mxGeometry x="695" y="130" width="90" height="30" as="geometry" />
        </mxCell>
        <mxCell id="3z7upujMglhFg8xOP7fg-63" value="SaaS" style="text;html=1;strokeColor=none;fillColor=none;align=center;verticalAlign=middle;whiteSpace=wrap;rounded=0;fontSize=18;" vertex="1" parent="1">
          <mxGeometry x="865" y="130" width="90" height="30" as="geometry" />
        </mxCell>
      </root>
    </mxGraphModel>
  </diagram>
</mxfile>
